<?xml version="1.0" encoding="utf-8"?>
<!-- Generator: Adobe Illustrator 27.8.0, SVG Export Plug-In . SVG Version: 6.00 Build 0)  -->
<svg version="1.1" id="Layer_1" xmlns="http://www.w3.org/2000/svg" xmlns:xlink="http://www.w3.org/1999/xlink" x="0px" y="0px"
	 viewBox="0 0 164 77" style="enable-background:new 0 0 164 77;" xml:space="preserve">
<style type="text/css">
	.st0{fill:#00488D;}
	.st1{fill:#FFFFFF;}
	.st2{fill:#E21019;}
</style>
<g>
	<path d="M48.3,55.1h-2.9l-0.7,1.8h-1l2.9-7h0.7l2.9,7h-1L48.3,55.1z M45.8,54.2h2.1l-1.1-2.6L45.8,54.2z"/>
	<path d="M52,51.8v5.1h-1v-7h0.7l4.2,5.1V50h1v7h-0.7L52,51.8z"/>
	<path d="M64.6,52.7v0.9h-2.3V56h3.1v0.9h-4.1v-7h4v0.9h-3v1.8H64.6z"/>
	<path d="M66.8,55.2c0.4,0.5,1,0.9,1.7,0.9c0.6,0,1.2-0.4,1.2-1c0-1.1-1.5-1.2-2.4-1.8c-0.5-0.3-0.9-0.8-0.9-1.5
		c0-1,0.9-1.8,2.1-1.8c0.9,0,1.5,0.4,1.9,0.7l-0.6,0.7c-0.4-0.3-0.8-0.5-1.2-0.5c-0.6,0-1.2,0.3-1.2,0.9c0,0.9,1.5,1.1,2.4,1.7
		c0.5,0.3,0.9,0.8,0.9,1.6c0,1.2-0.9,2-2.2,2c-1,0-1.8-0.4-2.4-1.2L66.8,55.2z"/>
	<path d="M72,55.2c0.4,0.5,1,0.9,1.7,0.9c0.6,0,1.2-0.4,1.2-1c0-1.1-1.5-1.2-2.4-1.8c-0.5-0.3-0.9-0.8-0.9-1.5c0-1,0.9-1.8,2.1-1.8
		c0.9,0,1.5,0.4,1.9,0.7L75,51.3c-0.4-0.3-0.8-0.5-1.2-0.5c-0.6,0-1.2,0.3-1.2,0.9c0,0.9,1.5,1.1,2.4,1.7c0.5,0.3,0.9,0.8,0.9,1.6
		c0,1.2-0.9,2-2.2,2c-1,0-1.8-0.4-2.4-1.2L72,55.2z"/>
	<path d="M80.5,52.7v0.9h-2.3V56h3.1v0.9h-4.1v-7h4v0.9h-3v1.8H80.5z"/>
	<path d="M83.6,51.8v5.1h-1v-7h0.7l4.2,5.1V50h1v7h-0.7L83.6,51.8z"/>
	<path d="M89.5,50h4.8v0.9h-1.9v6h-1v-6h-1.9V50z"/>
	<path d="M96.3,53.6v3.3h-1v-7h2.4c0.6,0,1,0.1,1.3,0.4c0.4,0.3,0.7,0.9,0.7,1.4c0,0.6-0.3,1.1-0.7,1.4c-0.2,0.2-0.5,0.3-0.8,0.4
		l2.5,3.3h-1.2l-2.5-3.3H96.3z M97.7,52.7c0.4,0,0.7-0.1,0.8-0.3c0.2-0.2,0.3-0.4,0.3-0.6s-0.1-0.5-0.3-0.6
		c-0.2-0.2-0.4-0.3-0.8-0.3h-1.4v1.8H97.7z"/>
	<path d="M105.6,55.1h-2.9l-0.7,1.8h-1l2.9-7h0.7l2.9,7h-1L105.6,55.1z M103.1,54.2h2.1l-1.1-2.6L103.1,54.2z"/>
	<path d="M113.8,49.9c1,0,1.9,0.4,2.5,1.1l-0.7,0.7c-0.4-0.4-1.1-0.8-1.9-0.8c-1.4,0-2.5,1.1-2.5,2.6c0,1.6,1.1,2.6,2.6,2.6
		c0.9,0,1.6-0.5,2-1l0.7,0.6c-0.6,0.8-1.6,1.3-2.7,1.3c-2.1,0-3.6-1.5-3.6-3.6C110.3,51.4,111.8,49.9,113.8,49.9z"/>
	<path d="M120.5,49.9c2,0,3.5,1.5,3.5,3.6s-1.5,3.6-3.5,3.6c-2,0-3.5-1.5-3.5-3.6S118.5,49.9,120.5,49.9z M120.5,56.1
		c1.4,0,2.5-1.1,2.5-2.6c0-1.5-1.1-2.6-2.5-2.6c-1.4,0-2.5,1.1-2.5,2.6C118,54.9,119.1,56.1,120.5,56.1z"/>
	<path d="M129,55.4h-0.7l-2-3.2v4.7h-1v-7h0.7l2.7,4.2l2.7-4.2h0.7v7h-1v-4.7L129,55.4z"/>
	<path d="M134.8,53.8v3.1h-1v-7h2.6c0.7,0,1.1,0.2,1.4,0.5c0.4,0.4,0.7,0.9,0.7,1.5s-0.3,1.1-0.7,1.5c-0.3,0.3-0.8,0.5-1.4,0.5
		H134.8z M136.4,52.9c0.5,0,0.7-0.1,0.9-0.3c0.2-0.2,0.3-0.4,0.3-0.7c0-0.3-0.1-0.5-0.3-0.7c-0.2-0.2-0.4-0.3-0.9-0.3h-1.6v2H136.4z
		"/>
	<path d="M142.7,55.1h-2.9l-0.7,1.8h-1l2.9-7h0.7l2.9,7h-1L142.7,55.1z M140.2,54.2h2.1l-1.1-2.6L140.2,54.2z"/>
	<path d="M146.4,51.8v5.1h-1v-7h0.7l4.2,5.1V50h1v7h-0.7L146.4,51.8z"/>
	<path d="M155.7,53.7v3.2h-1v-3.2l-2.4-3.8h1.1l1.8,2.8l1.8-2.8h1.1L155.7,53.7z"/>
</g>
<g>
	<path class="st0" d="M159.6,21.8c0-0.3,0.1-0.6,0.2-0.9c0.2-0.3,0.4-0.5,0.6-0.7c0.3-0.2,0.6-0.2,0.9-0.2c0.3,0,0.6,0.1,0.9,0.2
		c0.3,0.2,0.5,0.4,0.6,0.7c0.2,0.3,0.2,0.6,0.2,0.9c0,0.3-0.1,0.6-0.2,0.9c-0.1,0.3-0.4,0.5-0.6,0.7c-0.3,0.2-0.6,0.3-0.9,0.3
		c-0.3,0-0.6-0.1-0.9-0.3c-0.3-0.2-0.5-0.4-0.6-0.7C159.6,22.5,159.6,22.1,159.6,21.8z M159.8,21.8c0,0.3,0.1,0.5,0.2,0.8
		c0.1,0.2,0.3,0.4,0.5,0.6c0.2,0.1,0.5,0.2,0.7,0.2c0.3,0,0.5-0.1,0.7-0.2c0.2-0.1,0.4-0.3,0.5-0.6c0.1-0.2,0.2-0.5,0.2-0.8
		c0-0.3-0.1-0.5-0.2-0.8c-0.1-0.2-0.3-0.4-0.5-0.6c-0.2-0.1-0.5-0.2-0.7-0.2c-0.3,0-0.5,0.1-0.7,0.2c-0.2,0.1-0.4,0.3-0.5,0.6
		C159.9,21.3,159.8,21.5,159.8,21.8z M160.9,22v0.8h-0.3v-2.1h0.7c0.3,0,0.4,0.1,0.6,0.2c0.1,0.1,0.2,0.3,0.2,0.5
		c0,0.2-0.1,0.4-0.3,0.5c0.2,0.1,0.3,0.2,0.3,0.5v0.1c0,0.1,0,0.2,0,0.3v0h-0.4c0-0.1,0-0.2,0-0.3c0-0.2,0-0.2,0-0.3
		c0-0.2-0.1-0.2-0.3-0.2H160.9z M160.9,21.7h0.4c0.1,0,0.2,0,0.3-0.1c0.1-0.1,0.1-0.1,0.1-0.2c0-0.1,0-0.2-0.1-0.3s-0.2-0.1-0.3-0.1
		h-0.3V21.7z"/>
</g>
<g>
	<path class="st0" d="M156.5,20.2c-0.7,0.1-1.3,0.7-1.3,1.5v1.8c0,0.6-0.5,1.1-1.1,1.1h-7.3c-1.5,0-2.8,1.3-2.8,2.8v10.1
		c0,1.5,1.3,2.8,2.8,2.8h8.4c1.5,0,2.8-1.3,2.8-2.8V26v-1.4v-3C158.1,20.8,157.4,20.1,156.5,20.2z M155.3,36.3
		c0,0.6-0.5,1.1-1.1,1.1H148c-0.6,0-1.1-0.5-1.1-1.1v-7.8c0-0.6,0.5-1.1,1.1-1.1h6.2c0.6,0,1.1,0.5,1.1,1.1V36.3z"/>
	<g>
		<path class="st0" d="M117.9,24.6c-4.3,0-7.8,3.5-7.8,7.8c0,4.3,3.5,7.8,7.8,7.8c4.3,0,7.8-3.5,7.8-7.8
			C125.8,28.1,122.3,24.6,117.9,24.6z M117.9,37.5c-2.8,0-5.1-2.3-5.1-5.1s2.3-5.1,5.1-5.1s5.1,2.3,5.1,5.1S120.7,37.5,117.9,37.5z"
			/>
		<g>
			<path class="st0" d="M73.2,24.6L73.2,24.6c-0.8,0-1.4,0.6-1.4,1.4v12.9c0,0.8,0.6,1.4,1.4,1.4h0c0.8,0,1.4-0.6,1.4-1.4V26
				C74.6,25.3,74,24.6,73.2,24.6z"/>
			<circle class="st0" cx="73.2" cy="21.6" r="1.4"/>
		</g>
		<path class="st0" d="M91.9,37.9l-5.1-5.1c-0.2-0.2-0.2-0.5,0-0.6l5-5c0.5-0.5,0.6-1.4,0.2-1.9c-0.5-0.7-1.5-0.7-2.1-0.1l-5.1,5.1
			c-0.2,0.2-0.5,0.2-0.6,0l-5-5c-0.5-0.5-1.4-0.6-1.9-0.2c-0.7,0.5-0.7,1.5-0.1,2.1l5.1,5.1c0.2,0.2,0.2,0.5,0,0.6L77,37.9
			c-0.5,0.5-0.6,1.4-0.2,1.9c0.5,0.7,1.5,0.7,2.1,0.1l5.2-5.2c0.2-0.2,0.5-0.2,0.6,0l5.2,5.2c0.6,0.6,1.5,0.5,2.1-0.1
			C92.5,39.2,92.4,38.4,91.9,37.9z"/>
		<path class="st0" d="M105.7,24.6h-8.4h0c-1.5,0-2.8,1.3-2.8,2.8v11.5c0,0.8,0.6,1.4,1.4,1.4s1.4-0.6,1.4-1.4V28.5
			c0-0.6,0.5-1.1,1.1-1.1h6.2c0.6,0,1.1,0.5,1.1,1.1v0.8c0,0.8,0.6,1.4,1.4,1.4s1.4-0.6,1.4-1.4v-2
			C108.5,25.9,107.2,24.6,105.7,24.6z"/>
		<path class="st0" d="M140.5,24.6c-0.8,0-1.4,0.6-1.4,1.4v6.7c0,0.6-0.5,1.1-1.1,1.1h-6.2c-0.6,0-1.1-0.5-1.1-1.1V26
			c0-0.8-0.6-1.4-1.4-1.4s-1.4,0.6-1.4,1.4v7.8v0c0,1.5,1.3,2.8,2.8,2.8h6.5c1,0,1.9,0.8,1.9,1.9v0c0,1-0.8,1.9-1.9,1.9h-7.9
			c-0.8,0-1.4,0.6-1.4,1.4c0,0.8,0.6,1.4,1.4,1.4h9.8c1.5,0,2.8-1.3,2.8-2.8v0v-3.7v-0.8v-2V26C141.9,25.2,141.3,24.6,140.5,24.6z"
			/>
		<path class="st0" d="M69.5,20.3c-0.7-0.3-1.5,0.1-1.8,0.9l-4.4,12.7c-0.1,0.3-0.4,0.3-0.5,0l-4.4-12.7c-0.2-0.5-0.6-0.8-1.1-0.9
			c0,0,0,0-0.1,0c-0.1,0-0.1,0-0.2,0c-0.1,0-0.1,0-0.2,0c0,0,0,0-0.1,0c-0.5,0.1-0.9,0.4-1.1,0.9l-4.4,12.7c-0.1,0.3-0.4,0.3-0.5,0
			l-4.4-12.7c-0.3-0.7-1.1-1.1-1.8-0.9c-0.7,0.3-1.1,1.1-0.9,1.8l6,17.1c0.1,0.4,0.4,0.8,0.8,0.9c0,0,0,0,0,0c0,0,0.1,0,0.1,0.1v0
			c0,0,0.1,0,0.1,0c0,0,0.1,0,0.1,0c0.1,0,0.1,0,0.2,0c0,0,0.1,0,0.1,0c0,0,0.1,0,0.1,0c0.1,0,0.1,0,0.2,0c0,0,0.1,0,0.1,0
			c0,0,0.1,0,0.1,0v0c0,0,0.1,0,0.1-0.1c0,0,0,0,0,0c0.4-0.2,0.7-0.5,0.8-0.9l4.4-12.6c0.1-0.3,0.4-0.3,0.5,0l4.4,12.6
			c0.1,0.4,0.4,0.8,0.8,0.9c0,0,0,0,0,0c0,0,0.1,0,0.1,0.1v0c0,0,0.1,0,0.1,0c0,0,0.1,0,0.1,0c0.1,0,0.1,0,0.2,0c0,0,0.1,0,0.1,0
			c0,0,0.1,0,0.1,0c0.1,0,0.1,0,0.2,0c0,0,0.1,0,0.1,0c0,0,0.1,0,0.1,0v0c0,0,0.1,0,0.1-0.1c0,0,0,0,0,0c0.4-0.2,0.7-0.5,0.8-0.9
			l6-17.1C70.6,21.3,70.3,20.5,69.5,20.3z"/>
	</g>
</g>
<path class="st1" d="M34.6,56.9H6.1C3.8,56.9,2,55,2,52.7l0-28.5c0-2.3,1.9-4.2,4.2-4.2h28.5c2.3,0,4.2,1.9,4.2,4.2v28.5
	C38.8,55,36.9,56.9,34.6,56.9z"/>
<polygon class="st2" points="10.5,32.8 12.6,33.3 13.9,31.5 10.7,32.8 "/>
<path class="st2" d="M9.5,37.5c0.5,0,0.9-0.4,0.9-0.9c0-0.5-0.4-0.9-0.9-0.9c-0.5,0-0.9,0.4-0.9,0.9C8.6,37.1,9,37.5,9.5,37.5z"/>
<path class="st2" d="M10.2,33L7.4,34L9,34.4c0,0,0,0,0.1,0L10.2,33z"/>
<path class="st2" d="M14.6,30.2l-0.2-1.7L14,31.3l0.6-0.9C14.6,30.4,14.7,30.3,14.6,30.2z"/>
<path class="st2" d="M16.2,38.7L15.9,39l1.6,0.8l-0.9-1.1C16.5,38.5,16.3,38.5,16.2,38.7z"/>
<path class="st2" d="M26.4,39.8l-0.8-1.2c-0.2-0.2-0.5-0.2-0.6,0.1l-1.4,4c0.2,0,0.4,0,0.5,0.1C24.4,41.5,25.2,40.5,26.4,39.8z"/>
<path class="st2" d="M21.4,41.8l-1.1-2.2c-0.1-0.2-0.4-0.2-0.6,0l-0.7,1L21.4,41.8C21.4,41.8,21.4,41.8,21.4,41.8z"/>
<path class="st2" d="M31.2,36l-2.5,3c0.3,0,0.6-0.1,0.9-0.1c3,0,5.5,2.1,5.5,4.6c0,1.6-1,3.1-2.5,3.9l4,5.8c0.4-0.6,0.6-1.4,0.6-2.1
	v-9.7l-5.5-5.5C31.5,35.8,31.3,35.8,31.2,36z"/>
<path class="st2" d="M8.2,30.1c1.7,0.1,3.1-1.2,3.2-2.9c0.1-1.7-1.2-3.1-2.9-3.2c-1.7-0.1-3.1,1.2-3.2,2.9C5.2,28.6,6.5,30,8.2,30.1
	z"/>
<path class="st2" d="M36.2,53.7l-4.2-6c-0.7,0.3-1.5,0.5-2.4,0.5c-1.9,0-3.6-0.8-4.6-2.1c-0.4,0.4-0.9,0.6-1.5,0.6
	c-0.9,0-1.7-0.6-1.9-1.4l-0.2,0.4c-0.5,0.9-1.5,1.2-2.4,0.8l-3.6-1.9l-3,0c-0.1,0-0.3,0.1-0.3,0.2l-2.1,8.6c0,0.2-0.2,0.3-0.4,0.2h0
	c-0.2,0-0.3-0.2-0.2-0.4l2.2-9.1c0-0.1,0.2-0.2,0.3-0.2l2.3,0l-1.5-0.8c-0.3-0.2-0.6-0.4-0.7-0.7l-3.6-0.4c-0.2,0-0.3,0.1-0.3,0.2
	l-2.3,7.7c-0.1,0.2-0.2,0.3-0.4,0.2l0,0C5.1,50.2,5,50,5,49.9l2.4-8.2c0-0.1,0.2-0.2,0.3-0.2l3.8,0.4c0-0.3,0-0.7,0.2-1l0.8-1.5
	c0.1-0.2,0.3-0.4,0.5-0.6L10,39.9l-2.5-3.3l1.1-1.5l-4.3-1c-0.1,0-0.2-0.1-0.2-0.1l-0.5-0.7l0,17.9c0,2.3,1.9,4.2,4.2,4.2H33
	C34.3,55.3,35.5,54.7,36.2,53.7C36.2,53.8,36.2,53.7,36.2,53.7z"/>
<path class="st2" d="M33,21.7H11.5l0.7,0.6l2.8,2.2L14.5,28l0,0.2c0.1-0.1,0.2-0.2,0.3-0.2c0.2,0,0.4,0.1,0.4,0.3l0.3,2
	c0,0.1,0,0.2-0.1,0.3l-1.9,2.9l0.6,0.1l0,0.6c0,0-0.1,0-0.1,0c-0.5,0-0.9,0.4-0.9,0.9c0,0.5,0.4,0.9,0.9,0.9c0,0,0.1,0,0.1,0l0,2.3
	l0,0c0.3,0,0.7,0,1,0.2l0.3,0.1l0.8-1.1c0.1-0.2,0.4-0.2,0.5,0l1.9,2.6l1.2-1.8c0.1-0.2,0.4-0.2,0.6,0l2.3,4.5
	c0.1,0,0.2-0.1,0.3-0.1l1.9-5.5c0.1-0.2,0.4-0.3,0.6-0.1l1.6,2.3c0.2-0.1,0.4-0.2,0.6-0.2l3.5-4.2c0.1-0.1,0.3-0.2,0.5,0l5.6,5.5
	V25.9C37.2,23.5,35.3,21.7,33,21.7z"/>
<path class="st2" d="M4.5,33.3c0.1,0.1,0.1,0.1,0.2,0.1L7.3,34l-2.7-2.1l-1-0.8V32c0,0,0,0,0,0L4.5,33.3z"/>
<rect x="43.8" y="46" width="114.2" height="1"/>
</svg>
